<?xml version="1.0" encoding="UTF-8" standalone="no"?>
<svg
   xmlns:dc="http://purl.org/dc/elements/1.1/"
   xmlns:cc="http://creativecommons.org/ns#"
   xmlns:rdf="http://www.w3.org/1999/02/22-rdf-syntax-ns#"
   xmlns:svg="http://www.w3.org/2000/svg"
   xmlns="http://www.w3.org/2000/svg"
   id="svg8"
   version="1.1"
   viewBox="0 0 211.66666 158.75"
   height="600"
   width="800">
  <defs
     id="defs2" />
  <metadata
     id="metadata5">
    <rdf:RDF>
      <cc:Work
         rdf:about="">
        <dc:format>image/svg+xml</dc:format>
        <dc:type
           rdf:resource="http://purl.org/dc/dcmitype/StillImage" />
        <dc:title></dc:title>
      </cc:Work>
    </rdf:RDF>
  </metadata>
  <g
     transform="translate(0,-138.24998)"
     id="layer1">
    <path
       id="path861"
       d="m 106.55527,171.26636 c 0.81141,-0.94862 2.22783,-2.83255 0.98758,-4.12187 l -2.5762,-2.67801 c 0.68689,-0.55071 1.43208,-1.42284 1.58862,-2.36629 l 1.42754,-8.60263 c 0.13287,-0.80069 -0.2165,-1.91952 -1.12697,-2.47936 l -6.04818,-3.71906 -4.958722,-1.54021 c -3.519569,1.07332 -7.68063,1.97556 -10.518534,3.2307 l -11.269861,0.75132 c -0.916992,0.0613 -1.91102,0.95903 -2.141272,1.991 l -1.690478,-1.01427 -4.357682,-1.35241 -10.142872,2.85505 c -1.366092,0.38454 -1.288704,1.47278 -1.728047,2.21642 l -3.268256,0.0751 -3.343394,-1.08947 -6.649214,0.18783 c -0.936919,0.0267 -1.260341,0.25891 -1.840743,0.41326 l -5.259269,-1.9159 -8.1143,2.21641 c -0.973789,0.26601 -1.621481,1.56846 -1.953439,2.21642 l -3.906888,7.62595 c -0.486561,0.94971 -0.169597,2.41234 0.676195,2.93012 l 1.840743,1.12701 -2.855031,5.03386 c -0.758455,1.33729 -0.62899,3.17809 0.375661,4.05718 l 5.109005,4.47037 c -2.95794,1.01167 -3.909346,3.30152 -4.695775,6.12326 L 8.0567354,233.2506 c -0.900678,3.38665 1.0813012,5.81826 2.4418016,6.27354 l 9.541818,3.19314 -10.7923544,11.64383 c -1.5136416,1.63309 -0.6913936,3.60559 0.3005293,4.88363 l 5.1791261,4.97457 -5.844466,7.43477 c -1.2919976,1.64355 -0.026569,3.53934 0.7888915,4.5831 l 6.8078285,6.20677 9.910802,3.35339 13.533011,-2.40424 c 1.98763,-0.3531 1.977431,-1.62128 2.769044,-2.98441 l 3.833422,1.46509 16.501579,-2.17967 c 1.971071,-0.2604 4.566849,-4.82492 6.845397,-7.25362 0.159832,0.62979 6.549413,2.61691 7.024876,2.93182 l 2.983594,0.84064 c 0,0 6.489467,-0.12503 9.809001,-0.0894 0.776961,0.008 1.355772,-0.96554 1.355772,-0.96554 0.661483,0.35528 1.626416,0.75707 2.055571,0.62957 0,0 6.941871,-1.88005 9.775191,-2.90362 1.73921,-0.62834 2.25983,-1.51605 2.76359,-4.47706 0,0 10.96005,3.72037 12.78545,4.27208 2.62086,0.79217 6.33134,-3.36575 9.56268,-5.12903 l 3.58173,1.3261 c 1.65781,0.61376 7.26451,-1.31979 10.99146,-2.08452 l 3.12428,1.18629 c 1.95735,0.74322 4.95738,-2.49542 7.59669,-4.21494 l 2.69349,0.77637 18.06335,-2.73464 0.66293,-0.30122 14.59869,-1.90913 c 1.00302,-0.13115 1.73034,-0.7214 2.20308,-1.31938 l 6.5152,-7.85758 c 0.6384,-0.76991 1.02638,-1.64346 1.17357,-2.58706 l 2.04586,-13.1115 c 0.10733,-0.68783 -0.28246,-2.21622 -1.46966,-2.88339 l -11.28737,-7.79481 -4.93349,-1.45064 15.52922,-12.924 c 1.34994,-1.12349 1.79481,-3.95131 1.99394,-5.71675 l 2.25396,-19.98524 c 0.21065,-1.86763 -0.18573,-3.82887 -1.12701,-4.84602 l -11.64547,-12.07046 -9.98719,-3.28996 -18.12904,0.73296 c -2.13544,0.0862 -3.70461,2.01375 -4.28254,3.2119 l -6.03147,-2.22098 -17.28047,0.2254 c -2.78023,0.0363 -4.25924,2.94811 -4.88357,5.14658 l -10.70637,-3.53125 z"
       style="fill:#000000;fill-opacity:1;fill-rule:evenodd;stroke:#000000;stroke-width:0.2749863px;stroke-linecap:butt;stroke-linejoin:miter;stroke-opacity:1" />
    <path
       id="path863"
       d="m 37.977135,238.22135 c -0.355646,1.86935 -2.315737,2.27868 -3.665737,1.96567 l -9.509664,-2.20477 c -3.078374,-0.71365 -2.532463,-2.70512 -2.018811,-4.62201 L 33.78013,192.31992 c 0.278216,-1.03824 0.880294,-2.19253 2.443825,-2.23132 l 6.428324,-0.15937 c 2.071491,-0.0512 2.908911,1.20534 3.293852,2.39069 l 3.346976,10.30656 4.117314,-11.44876 c 0.370772,-1.031 1.243234,-1.85612 2.603202,-1.886 l 7.251785,-0.15938 c 1.482906,-0.0327 2.500308,0.60843 2.921966,2.57663 l 8.075246,37.69336 c 0.367605,1.71592 -0.03723,3.47961 -2.045375,4.22355 l -10.253438,3.79858 c -2.178947,0.80723 -4.326646,0.17456 -4.515765,-2.36414 l -1.460982,-21.14441 -7.325505,13.24542 -6.434291,-11.27974 z"
       style="fill:#ff321e;fill-opacity:1;fill-rule:evenodd;stroke:#000000;stroke-width:0.2749863px;stroke-linecap:butt;stroke-linejoin:miter;stroke-opacity:1" />
    <path
       id="path865"
       d="m 96.146312,184.7503 c -0.1641,-0.004 -0.338049,-0.004 -0.522584,0.002 l -13.937295,0.45116 c -1.975334,0.064 -2.617194,0.99069 -2.817536,2.0286 l -5.822516,30.16519 c -0.147402,0.76362 -0.155705,1.28305 0.03759,2.29171 l 2.066156,10.78138 c 0.251007,1.3098 0.724196,2.60667 2.141351,2.70477 l 4.883155,0.33838 c 1.819577,0.12596 2.275241,-1.4855 2.404521,-2.44212 l 0.938816,-6.94933 8.940818,-3.1559 1.389968,7.77644 c 0.332172,1.85837 2.45529,2.29071 3.644112,1.80299 l 8.790422,-3.60654 c 1.49005,-0.61128 2.04965,-2.00873 1.38998,-4.24455 L 99.154511,187.04419 c -0.308271,-1.04484 -0.546724,-2.22868 -3.008199,-2.29389 z m -4.617567,14.98084 2.231355,11.02386 -6.667303,0.66373 1.593436,-11.66128 z"
       style="fill:#5af50a;fill-opacity:1;fill-rule:evenodd;stroke:#000000;stroke-width:0.2749863px;stroke-linecap:butt;stroke-linejoin:miter;stroke-opacity:1" />
    <path
       id="path867"
       d="m 127.79176,176.18542 c -0.26892,0.0113 -0.54816,0.0592 -0.83783,0.15256 l -17.46864,5.63452 c -1.68096,0.54227 -2.04986,1.9333 -1.95337,3.19349 l 3.11831,40.72162 c 0.21181,2.76632 2.90809,2.64652 3.71876,2.44159 l 6.6867,-1.69022 c 1.36383,-0.34478 2.07282,-1.54391 2.02855,-3.75687 l -0.18746,-9.39145 6.42352,11.08219 c 0.49391,0.85203 2.50721,1.42609 3.26814,0.93936 l 9.2792,-5.93584 c 0.72777,-0.46556 1.59929,-2.65946 0.0376,-4.09475 l -7.88922,-7.25007 5.55987,-4.84607 c 0.75215,-0.65561 1.13973,-1.59469 1.27721,-2.5544 l 2.06615,-14.42551 c 0.20664,-1.44272 -0.0537,-2.26903 -1.61504,-3.15532 l -11.38294,-6.46169 c -0.61078,-0.34667 -1.32276,-0.63725 -2.12951,-0.60314 z m -5.23708,14.96584 7.46451,1.51401 -0.90309,8.89882 -6.2959,2.04545 z"
       style="fill:#ffdc08;fill-opacity:1;fill-rule:evenodd;stroke:#000000;stroke-width:0.2749863px;stroke-linecap:butt;stroke-linejoin:miter;stroke-opacity:1" />
    <path
       id="path869"
       d="m 143.75224,219.09577 c 0.005,2.96383 1.74422,3.66812 3.34696,3.40011 l 7.78304,-1.30161 c 1.75719,-0.29389 2.08659,-1.90399 2.23133,-3.2673 l 4.25016,-40.0309 c 0.13027,-1.22718 0.23707,-1.94106 -0.36124,-2.63945 -0.37773,-0.44099 -1.56561,-1.11962 -2.8185,-1.10597 l -12.20042,0.13282 c -1.58072,0.017 -2.31347,1.68118 -2.31103,2.97504 z"
       style="fill:#41a0ff;fill-opacity:1;fill-rule:evenodd;stroke:#000000;stroke-width:0.2749863px;stroke-linecap:butt;stroke-linejoin:miter;stroke-opacity:1" />
    <path
       id="path871"
       d="m 187.9767,171.72713 c -0.14134,-0.004 -0.28236,-10e-4 -0.42161,0.006 l -15.11457,0.84967 c -1.32467,0.0745 -1.61598,0.51691 -2.09838,1.22185 l -8.57988,12.53821 c -0.2547,0.3722 -0.47037,0.65913 -0.53119,1.30137 l -1.27501,13.46786 0.10631,0.61067 5.10013,12.90988 c 0.49408,1.25059 1.24353,1.34837 1.96518,1.46087 l 14.31813,2.23157 c 0.88924,0.13857 1.43222,0.0347 1.83251,-0.29217 l 14.02539,-11.449 c 0.65126,-0.53165 1.05838,-1.27499 1.16923,-2.20473 l 2.25735,-18.9397 c 0.10489,-0.87994 -0.12696,-1.78354 -0.90283,-2.62953 l -9.11107,-9.93497 c -0.73185,-0.798 -1.75025,-1.12172 -2.73969,-1.14827 z m -9.18142,17.60878 6.23574,0.4505 0.56348,7.13773 -5.33456,4.16959 -4.65816,-4.73332 z"
       style="fill:#ff69c8;fill-opacity:1;fill-rule:evenodd;stroke:#000000;stroke-width:0.2749863px;stroke-linecap:butt;stroke-linejoin:miter;stroke-opacity:1" />
    <path
       id="path873"
       d="m 29.795633,171.28177 c -0.427297,-0.38081 -1.426631,-0.89534 -1.965683,0.0531 l -2.098502,3.6923 c -0.472618,0.83155 -0.55268,1.38155 0.05311,1.91254 l 4.303253,3.77202 c 0.609273,0.53404 1.28424,0.5746 1.912557,0.45158 l 7.597106,-1.48755 c 0.581245,-0.11381 0.775617,-0.56633 0.903156,-0.87659 l 2.762585,-6.72052 c 0.262377,-0.63829 0.207238,-1.14863 -0.185947,-1.40788 l -8.500258,-5.60484 1.221913,-2.47041 3.267288,2.55009 c 0.452978,0.35357 1.653865,0.94001 2.045375,0.18602 l 2.151629,-4.14393 c 0.329169,-0.634 0.350549,-1.27335 -0.318764,-1.72665 l -4.197003,-2.84227 c -0.573506,-0.38839 -1.12867,-0.50129 -1.726611,-0.3453 l -6.109565,1.59382 c -0.623834,0.16269 -0.959535,0.50421 -1.248476,1.06251 l -3.134472,6.05641 c -0.343083,0.66291 -0.198173,1.42129 0.478142,1.85946 l 7.995555,5.17982 -1.54067,2.52352 z"
       style="fill:#dadada;fill-opacity:1;fill-rule:evenodd;stroke:#000000;stroke-width:0.2749863px;stroke-linecap:butt;stroke-linejoin:miter;stroke-opacity:1" />
    <path
       id="path894"
       d="m 43.927314,175.0538 3.665741,3.24069 c 0.299891,0.26513 0.561484,0.44022 1.168784,0.3188 l 5.843931,-1.1688 c 0.807039,-0.16142 1.230111,-0.40708 1.5938,-1.03596 l 2.550078,-4.40954 1.221908,-12.00659 c 0.08901,-0.87471 -0.144735,-1.26106 -0.717209,-1.35473 l -1.460983,-0.23909 -3.718863,0.0796 c -1.305027,0.0281 -1.085978,0.95369 -1.089095,1.56719 l -0.05311,10.46594 -2.57664,0.85005 1.301601,-12.6176 c 0.113694,-1.10208 -0.898989,-1.5511 -1.646924,-1.51411 l -4.834523,0.2391 c -0.762989,0.0377 -1.313207,0.72002 -1.328166,1.43438 l -0.318757,15.22078 c -0.01277,0.60964 0.191313,0.74661 0.398444,0.92976 z"
       style="fill:#dadada;fill-opacity:1;fill-rule:evenodd;stroke:#000000;stroke-width:0.2749863px;stroke-linecap:butt;stroke-linejoin:miter;stroke-opacity:1" />
    <path
       id="path896"
       d="m 69.564477,153.45343 c -0.143076,0.001 -0.286418,0.0197 -0.428596,0.0574 l -7.703378,2.04522 c -1.275715,0.33875 -1.12008,1.27308 -1.0892,1.9394 l 0.823349,17.77099 c 0.0543,1.17156 0.341792,2.16151 1.779887,1.8594 l 3.161273,-0.66438 c 0.921322,-0.19353 0.79703,-0.92379 0.79703,-1.48719 v -4.03779 l 3.798246,-0.47799 c 0.321813,-0.0405 0.568457,0.018 0.956546,-0.45169 l 3.532933,-4.2768 1.141835,-6.98638 c 0.09697,-0.59317 0.412754,-1.36327 -0.238999,-1.753 l -5.28597,-3.16073 c -0.388542,-0.23206 -0.815735,-0.38061 -1.244956,-0.3765 z m -2.341145,6.6743 2.779939,0.75138 -0.563399,3.9825 -2.32933,0.71322 z"
       style="fill:#dadada;fill-opacity:1;fill-rule:evenodd;stroke:#000000;stroke-width:0.2749863px;stroke-linecap:butt;stroke-linejoin:miter;stroke-opacity:1" />
    <path
       id="path898"
       d="m 89.669337,171.81306 c 0.01708,0.75116 -0.436546,1.61093 -1.354724,1.72664 l -10.120624,1.27501 c -0.836284,0.10538 -1.757258,-0.58344 -1.859429,-1.40783 l -0.770339,-6.21584 2.311009,-12.35195 c 0.181311,-0.96907 0.824022,-1.2978 1.779741,-1.35473 l 8.925273,-0.53124 c 0.694743,-0.0413 1.598908,0.48979 1.514112,1.35473 l -0.398452,4.06418 c -0.09038,0.92206 -1.07246,0.75409 -1.673488,0.71721 l -4.329819,-0.26563 -0.398452,2.68289 3.187599,-0.47813 c 0.921245,-0.13821 1.743815,0.3178 1.673489,1.40783 l -0.159382,2.47041 c -0.06365,0.98675 -0.872762,1.14219 -1.859429,1.14219 h -3.187599 l 0.318759,2.76261 4.728269,-1.40788 c 0.781645,-0.23269 1.580108,0.30067 1.593801,0.90315 z"
       style="fill:#dadada;fill-opacity:1;fill-rule:evenodd;stroke:#000000;stroke-width:0.2749863px;stroke-linecap:butt;stroke-linejoin:miter;stroke-opacity:1" />
    <path
       id="path825"
       d="m 99.942959,149.75076 c -0.05653,0.004 -0.112405,0.0125 -0.168115,0.028 l -8.001999,2.19721 c -0.899434,0.247 -1.331588,0.94674 -1.29598,1.63431 l 0.976953,18.85805 c 0.03985,0.76951 1.012874,1.27955 1.521556,1.16496 l 3.418532,-0.77019 c 0.53585,-0.12072 0.729653,-0.64874 0.732043,-0.97695 l 0.03759,-5.10875 2.742352,5.31553 c 0.340629,0.66025 1.132919,0.66404 1.690759,0.33782 l 4.20751,-2.46038 c 0.61285,-0.35844 0.40895,-1.42972 0.0564,-1.78419 l -3.53131,-3.5501 2.68592,-2.27296 c 0.29109,-0.24628 0.34621,-0.47348 0.41303,-0.84535 l 1.20199,-6.6867 c 0.0812,-0.45242 0.24621,-0.99032 -0.35663,-1.37114 l -5.20274,-3.28698 c -0.32946,-0.20814 -0.7334,-0.44752 -1.127846,-0.42214 z m -2.591434,6.86498 2.817555,0.60102 -0.525824,4.01952 -2.329325,0.7138 z"
       style="fill:#dadada;fill-opacity:1;fill-rule:evenodd;stroke:#000000;stroke-width:0.2749863px;stroke-linecap:butt;stroke-linejoin:miter;stroke-opacity:1" />
    <path
       id="path848"
       d="m 29.678048,267.67807 c -0.760136,-1.00175 -1.962469,-0.72394 -2.470392,-0.0529 l -5.487988,7.24781 c -0.512027,0.67624 -0.5793,1.37283 0.132817,2.01884 l 5.648691,5.12404 c 0.623719,0.5658 1.317053,0.65786 1.939121,0.55786 l 11.111483,-1.78643 c 0.575394,-0.0924 0.904684,-0.58352 1.195349,-1.11563 l 4.973993,-9.10594 c 0.336805,-0.61662 0.29831,-1.35385 -0.02655,-1.91257 l -2.583293,-4.4427 3.203545,-5.36315 c 0.23013,-0.38529 0.314504,-1.03128 0,-1.56725 l -4.547657,-7.74986 c -0.337893,-0.57584 -1.044843,-0.88133 -1.779742,-0.92972 l -10.630652,-0.69998 c -0.52059,-0.0344 -0.997192,0.19141 -1.354729,0.63756 l -7.682129,9.58539 c -0.43994,0.54892 -0.418861,1.49371 0.132817,1.99223 l 5.599571,5.06036 c 0.714394,0.64557 1.889623,0.46659 2.260528,-0.0437 l 5.319313,-7.04725 1.929827,2.30969 -4.117313,5.59666 2.874166,3.86653 -2.155637,2.41329 z"
       style="fill:#dadada;fill-opacity:1;fill-rule:evenodd;stroke:#000000;stroke-width:0.2749863px;stroke-linecap:butt;stroke-linejoin:miter;stroke-opacity:1" />
    <path
       id="path850"
       d="m 60.89676,245.36954 -11.520674,3.54325 c -1.135282,0.34913 -1.29896,1.04626 -1.277258,1.85569 l 0.698811,26.07833 c 0.02405,0.89673 1.400477,1.43685 2.024803,1.34988 l 12.629327,-1.75968 c 0.5584,-0.0778 1.259508,-0.2185 1.614973,-0.65058 l 6.820495,-8.29125 1.928317,-12.0991 c 0.118149,-0.74139 0.168084,-1.56008 -0.361586,-1.92831 l -10.677132,-7.42331 z m -2.530639,10.67712 5.230383,2.26601 -1.903951,6.57976 -3.350308,2.33767 z"
       style="fill:#dadada;fill-opacity:1;fill-rule:evenodd;stroke:#000000;stroke-width:0.24950662px;stroke-linecap:butt;stroke-linejoin:miter;stroke-opacity:1" />
    <path
       id="path870"
       d="m 190.26655,220.81326 1.80138,-0.28675 0.009,0.41403 -0.76389,0.099 0.0425,2.0418 -0.44198,0.0479 -0.0334,-2.01383 -0.63226,0.0804 z"
       style="fill:#000000;fill-opacity:1;fill-rule:evenodd;stroke:none;stroke-width:0.2749863px;stroke-linecap:butt;stroke-linejoin:miter;stroke-opacity:1" />
    <path
       id="path874"
       d="m 192.37626,222.92368 -0.0419,-2.48497 0.40393,-0.0305 0.72353,1.28333 0.73785,-1.49577 0.39909,-0.051 0.007,2.44693 -0.43206,0.071 -0.0107,-1.53914 -0.53201,1.15285 -0.33075,0.008 -0.55037,-0.98596 0.0455,1.57426 z"
       style="fill:#000000;fill-opacity:1;fill-rule:evenodd;stroke:none;stroke-width:0.2749863px;stroke-linecap:butt;stroke-linejoin:miter;stroke-opacity:1" />
    <path
       id="path1615"
       d="m 92.268843,248.50705 -3.288335,7.43738 -1.533826,-11.9064 c -0.130875,-1.01599 -1.328099,-1.57108 -2.085553,-1.24693 l -9.489833,4.06075 c -0.760371,0.32537 -0.948229,1.23101 -0.750361,1.98626 l 6.024941,22.99629 c 0.152523,0.58215 0.591292,1.05596 1.677272,1.05931 l 7.128413,0.0222 c 0.665211,0.002 0.836847,-0.53447 0.971052,-0.88271 l 1.743479,-4.52424 1.588997,3.72973 c 0.367969,0.86369 1.30381,1.12572 2.140731,0.86073 l 6.62081,-2.09662 c 0.60827,-0.19261 0.89077,-0.70076 0.99314,-1.23589 l 4.45799,-23.30528 c 0.10842,-0.56663 -0.20141,-1.52531 -0.92689,-1.58898 l -8.2981,-0.72829 c -0.792239,-0.0696 -1.222943,0.47004 -1.346233,1.19174 l -1.809688,10.59329 -3.177994,-6.22358 z"
       style="fill:#ffdc08;fill-opacity:1;fill-rule:evenodd;stroke:#000000;stroke-width:0.2749863px;stroke-linecap:butt;stroke-linejoin:miter;stroke-opacity:1" />
    <path
       id="path1617"
       d="m 118.34394,243.76871 c -0.60514,-0.0141 -1.07691,0.1176 -1.44584,0.47906 l -7.63569,7.48157 c -0.56875,0.55725 -0.8437,1.30765 -0.83894,2.05222 l 0.0668,10.32863 c 0.005,0.81695 0.54632,1.45403 1.23584,1.67731 l 10.83564,3.50875 c 0.58702,0.19007 1.09092,0.0545 1.52318,-0.24278 l 8.12121,-5.58348 c 0.82406,-0.56653 1.09091,-1.20009 1.1698,-1.87603 l 1.08168,-9.26898 c 0.0678,-0.57987 -0.0304,-1.16058 -0.44148,-1.74337 l -3.33262,-4.7231 c -0.37108,-0.52591 -0.85752,-0.73843 -1.39051,-0.81638 l -8.29792,-1.21381 c -0.23252,-0.034 -0.44921,-0.0548 -0.65095,-0.0597 z m 1.31693,9.32749 3.85466,0.4528 -0.26532,4.46315 -4.29133,1.68535 -1.74764,-3.57373 z"
       style="fill:#ffdc08;fill-opacity:1;fill-rule:evenodd;stroke:#000000;stroke-width:0.2749863px;stroke-linecap:butt;stroke-linejoin:miter;stroke-opacity:1" />
    <path
       id="path1619"
       d="m 114.33824,246.01319 c -0.30252,0.26129 -0.61047,0.4861 -1.16967,0.37522 l -2.56006,-0.5076 c -0.59357,-0.1177 -1.04571,-0.31258 -1.3021,-1.34623 l -0.70623,-2.84695 c -0.14901,-0.60084 0.0297,-1.27486 0.52965,-1.83175 l 2.14077,-2.38349 c 0.25419,-0.28307 0.57938,-0.41647 1.08139,-0.37522 l 3.22214,0.26487 c 0.54588,0.0448 1.13659,0.38642 1.23589,1.21381 l 0.39723,3.31038 c 0.0978,0.81419 -0.17469,1.80009 -0.92694,2.44971 z"
       style="fill:#ffdc08;fill-opacity:1;fill-rule:evenodd;stroke:#000000;stroke-width:0.2749863px;stroke-linecap:butt;stroke-linejoin:miter;stroke-opacity:1" />
    <path
       id="path1621"
       d="m 123.56321,243.69592 c -0.40024,0.22067 -0.91505,0.32355 -1.61106,0.044 l -3.2442,-1.30212 c -0.5365,-0.21534 -0.92689,-0.81499 -0.92689,-1.94208 v -2.82491 c 0,-0.63863 0.33713,-1.13578 0.94896,-1.58897 l 2.97935,-2.20697 c 0.46105,-0.3415 0.98445,-0.3487 1.34625,-0.15446 l 4.19318,2.25107 c 0.74292,0.39884 0.69828,1.28229 0.48556,1.87591 l -1.3683,3.81801 c -0.13632,0.38031 -0.47373,0.74636 -1.0814,1.08139 z"
       style="fill:#ffdc08;fill-opacity:1;fill-rule:evenodd;stroke:#000000;stroke-width:0.2749863px;stroke-linecap:butt;stroke-linejoin:miter;stroke-opacity:1" />
    <path
       id="path1623"
       d="m 130.5813,246.7415 c 0.40508,0.30681 0.94081,0.33528 1.41246,-0.15446 l 2.86901,-2.97941 c 0.44539,-0.46255 0.64858,-1.20468 0.30894,-2.03034 l -1.28003,-3.11179 c -0.379,-0.92141 -1.08093,-1.34147 -1.72141,-1.1476 l -3.35453,1.01516 c -0.60939,0.18443 -1.29864,0.63959 -1.50073,1.83177 l -0.44137,2.6042 c -0.0988,0.58169 0.0308,1.18769 0.70624,1.69932 z"
       style="fill:#ffdc08;fill-opacity:1;fill-rule:evenodd;stroke:#000000;stroke-width:0.2749863px;stroke-linecap:butt;stroke-linejoin:miter;stroke-opacity:1" />
    <path
       id="path1625"
       d="m 146.59074,233.55823 c -0.17044,-0.0109 -0.33027,0.004 -0.47265,0.052 l -10.10788,3.39864 c -0.85453,0.28735 -1.24214,1.47006 -0.86043,2.27297 l 1.27987,2.69236 c 0.30472,0.6409 -0.14917,1.06238 -0.44147,1.39053 l -2.33898,2.62635 c -0.65486,0.73513 -0.2016,2.81745 -0.24278,4.3036 l 1.08114,13.06509 c 0.11718,1.41568 1.14846,2.22928 2.40559,1.92009 l 5.47341,-1.34648 c 0.80575,-0.1982 1.42326,-0.91463 1.38999,-1.63326 l -0.22076,-4.7666 3.57539,5.73764 c 0.83834,1.34553 2.08736,0.94379 2.93515,0.30937 l 6.66521,-4.9879 c 0.78049,-0.58409 0.50311,-1.46493 0,-1.87602 l -5.42938,-4.43579 2.42762,-2.44964 c 0.65414,-0.66008 0.90556,-1.47004 1.05965,-2.31749 l 1.19178,-6.55456 c 0.16376,-0.90072 -0.2535,-1.8712 -1.03762,-2.38357 l -6.68669,-4.36972 c -0.52683,-0.34425 -1.13485,-0.61462 -1.64616,-0.64772 z m -3.56248,9.38711 4.6345,0.94905 -0.63967,5.20861 -3.7961,1.61074 z"
       style="fill:#ffdc08;fill-opacity:1;fill-rule:evenodd;stroke:#000000;stroke-width:0.2749863px;stroke-linecap:butt;stroke-linejoin:miter;stroke-opacity:1" />
    <path
       id="path1629"
       d="m 156.3583,236.30272 c -0.0632,-1.01071 0.11381,-2.06516 1.6111,-2.38354 l 7.68013,-1.63312 c 1.22234,-0.25991 2.26197,0.4155 2.18485,1.63312 l -1.00414,15.85686 6.70909,-3.0235 c 1.04429,-0.47062 2.28656,-0.16338 2.1518,1.13656 l -0.99316,9.57814 c -0.0818,0.79082 -0.62792,1.47723 -1.69932,1.63313 l -13.04304,1.89798 c -1.1443,0.16651 -2.03906,0.26059 -2.18485,-2.07455 z"
       style="fill:#ffdc08;fill-opacity:1;fill-rule:evenodd;stroke:#000000;stroke-width:0.2749863px;stroke-linecap:butt;stroke-linejoin:miter;stroke-opacity:1" />
    <path
       id="path1631"
       d="m 187.6867,228.07461 c -0.23314,0.009 -0.47921,0.0497 -0.74011,0.12838 l -9.97526,3.00174 c -1.01019,0.30394 -1.39683,1.08609 -1.36845,2.0302 l 0.68425,22.77551 c 0.0333,1.10886 0.13155,2.18613 2.51566,1.87603 l 10.35066,-1.34595 c 1.37723,-0.1791 2.11573,-0.65776 2.75848,-1.41249 l 4.81119,-5.65013 c 0.54048,-0.6347 0.94425,-1.37782 1.08167,-2.25094 l 1.50062,-9.53373 c 0.2049,-1.30167 1.8e-4,-2.13937 -0.66222,-2.60429 l -9.18089,-6.44448 c -0.49591,-0.34811 -1.07621,-0.59866 -1.7756,-0.56985 z m -2.19669,9.81682 5.31875,2.2294 -1.72138,5.84832 -3.66397,2.58227 z"
       style="fill:#ffdc08;fill-opacity:1;fill-rule:evenodd;stroke:#000000;stroke-width:0.2749863px;stroke-linecap:butt;stroke-linejoin:miter;stroke-opacity:1" />
  </g>
</svg>
